<svg xmlns="http://www.w3.org/2000/svg" viewBox="0 0 24 30" fill="none" x="0px" y="0px"><path fill-rule="evenodd" clip-rule="evenodd" d="M2 2H1C0.447716 2 0 1.55228 0 1C0 0.447715 0.447716 0 1 0H3C3.26522 0 3.51957 0.105357 3.70711 0.292893C3.89464 0.48043 4 0.734783 4 1V5H23C23.3152 5 23.6119 5.14857 23.8007 5.4009C23.9895 5.65324 24.0483 5.97982 23.9594 6.28217L20.43 18.2822C20.3048 18.7077 19.9142 19 19.4706 19H18.2361C18.7111 19.5308 19 20.2316 19 21C19 22.6569 17.6569 24 16 24C14.3431 24 13 22.6569 13 21C13 20.2316 13.2889 19.5308 13.7639 19H8.23611C8.71115 19.5308 9 20.2316 9 21C9 22.6569 7.65685 24 6 24C4.34315 24 3 22.6569 3 21C3 20.1364 3.36489 19.3581 3.94889 18.8107C2.81047 18.3848 2 17.287 2 16V7.00085L2 2ZM4 7L4 16C4 16.5523 4.44772 17 5 17H18.7224L21.6635 7H4ZM5 21C5 20.4477 5.44772 20 6 20C6.55228 20 7 20.4477 7 21C7 21.5523 6.55228 22 6 22C5.44772 22 5 21.5523 5 21ZM16 20C15.4477 20 15 20.4477 15 21C15 21.5523 15.4477 22 16 22C16.5523 22 17 21.5523 17 21C17 20.4477 16.5523 20 16 20Z" fill="black"/><text x="0" y="39" fill="#000000" font-size="5px" font-weight="bold" font-family="'Helvetica Neue', Helvetica, Arial-Unicode, Arial, Sans-serif">Created by HideMaru</text><text x="0" y="44" fill="#000000" font-size="5px" font-weight="bold" font-family="'Helvetica Neue', Helvetica, Arial-Unicode, Arial, Sans-serif">from the Noun Project</text></svg>