<svg xmlns="http://www.w3.org/2000/svg" xmlns:xlink="http://www.w3.org/1999/xlink" version="1.1" x="0px" y="0px" viewBox="0 0 32 40" enable-background="new 0 0 32 32" xml:space="preserve"><path d="M9.056,7.176c0.476,0,0.862-0.385,0.862-0.862V2.862C9.918,2.387,9.532,2,9.056,2H8.625C8.148,2,7.761,2.387,7.761,2.862  v3.451c0,0.478,0.387,0.862,0.864,0.862H9.056z"/><path d="M21,7.176c0.476,0,0.862-0.385,0.862-0.862V2.862C21.862,2.387,21.476,2,21,2h-0.432c-0.477,0-0.863,0.387-0.863,0.862  v3.451c0,0.478,0.386,0.862,0.863,0.862H21z"/><path d="M12.357,11.556c0-0.214-0.175-0.388-0.389-0.388H9.747c-0.214,0-0.389,0.174-0.389,0.388v1.687  c0,0.215,0.174,0.389,0.389,0.389h2.221c0.214,0,0.389-0.174,0.389-0.389V11.556z"/><path d="M16.307,11.556c0-0.214-0.174-0.388-0.388-0.388h-2.182c-0.213,0-0.387,0.174-0.387,0.388v1.687  c0,0.215,0.174,0.389,0.387,0.389h2.182c0.214,0,0.388-0.174,0.388-0.389V11.556z"/><path d="M17.691,11.168c-0.213,0-0.388,0.174-0.388,0.388v1.687c0,0.215,0.174,0.389,0.388,0.389h2.182  c0.214,0,0.388-0.174,0.388-0.389v-1.687c0-0.214-0.173-0.388-0.388-0.388H17.691z"/><path d="M24.215,11.556c0-0.214-0.174-0.388-0.389-0.388h-2.18c-0.214,0-0.389,0.174-0.389,0.388v1.687  c0,0.215,0.175,0.389,0.389,0.389h2.18c0.214,0,0.389-0.174,0.389-0.389V11.556z"/><path d="M8.366,15.008c0-0.214-0.174-0.389-0.39-0.389H5.797c-0.214,0-0.39,0.175-0.39,0.389v1.686c0,0.215,0.175,0.389,0.39,0.389  h2.179c0.215,0,0.39-0.174,0.39-0.389V15.008z"/><path d="M12.357,15.008c0-0.214-0.175-0.389-0.389-0.389H9.747c-0.214,0-0.389,0.175-0.389,0.389v1.686  c0,0.215,0.174,0.389,0.389,0.389h2.221c0.214,0,0.389-0.174,0.389-0.389V15.008z"/><path d="M16.307,15.008c0-0.214-0.174-0.389-0.388-0.389h-2.182c-0.213,0-0.387,0.175-0.387,0.389v1.686  c0,0.215,0.174,0.389,0.387,0.389h2.182c0.214,0,0.388-0.174,0.388-0.389V15.008z"/><path d="M19.873,17.082c0.214,0,0.388-0.174,0.388-0.389v-1.686c0-0.214-0.173-0.389-0.388-0.389h-2.182  c-0.213,0-0.388,0.175-0.388,0.389v1.686c0,0.215,0.174,0.389,0.388,0.389H19.873z"/><path d="M23.826,14.619h-2.18c-0.214,0-0.389,0.174-0.389,0.389v1.686c0,0.215,0.175,0.389,0.389,0.389h2.18  c0.214,0,0.389-0.174,0.389-0.389v-1.686C24.215,14.793,24.041,14.619,23.826,14.619z"/><path d="M8.366,18.461c0-0.215-0.174-0.388-0.39-0.388H5.797c-0.214,0-0.39,0.173-0.39,0.388v1.686c0,0.215,0.175,0.389,0.39,0.389  h2.179c0.215,0,0.39-0.174,0.39-0.389V18.461z"/><path d="M12.357,18.461c0-0.215-0.175-0.388-0.389-0.388H9.747c-0.214,0-0.389,0.173-0.389,0.388v1.686  c0,0.215,0.174,0.389,0.389,0.389h2.221c0.214,0,0.389-0.174,0.389-0.389V18.461z"/><path d="M16.307,18.461c0-0.215-0.174-0.388-0.388-0.388h-2.182c-0.213,0-0.387,0.173-0.387,0.388v1.686  c0,0.215,0.174,0.389,0.387,0.389h2.182c0.214,0,0.388-0.174,0.388-0.389V18.461z"/><path d="M7.977,21.525H5.797c-0.214,0-0.39,0.174-0.39,0.388v1.686c0,0.214,0.175,0.388,0.39,0.388h2.179  c0.215,0,0.39-0.174,0.39-0.388v-1.686C8.366,21.699,8.192,21.525,7.977,21.525z"/><path d="M11.968,21.525H9.747c-0.214,0-0.389,0.174-0.389,0.388v1.686c0,0.214,0.174,0.388,0.389,0.388h2.221  c0.214,0,0.389-0.174,0.389-0.388v-1.686C12.357,21.699,12.182,21.525,11.968,21.525z"/><path d="M15.919,21.525h-2.182c-0.213,0-0.387,0.174-0.387,0.388v1.686c0,0.214,0.174,0.388,0.387,0.388h2.182  c0.214,0,0.388-0.174,0.388-0.388v-1.686C16.307,21.699,16.133,21.525,15.919,21.525z"/><path d="M23.613,17.917c-3.33,0-6.04,2.71-6.04,6.042c0,3.33,2.71,6.041,6.04,6.041c3.331,0,6.042-2.711,6.042-6.041  C29.655,20.627,26.944,17.917,23.613,17.917z M23.613,28.756c-2.645,0-4.797-2.152-4.797-4.797c0-2.646,2.152-4.797,4.797-4.797  c2.646,0,4.798,2.15,4.798,4.797C28.412,26.604,26.259,28.756,23.613,28.756z"/><path d="M3.898,25.379V9.775h21.827v7.619c0.552,0.178,1.071,0.427,1.553,0.73V5.362c0-0.571-0.463-1.036-1.035-1.036h-3.781v1.987  c0,0.806-0.656,1.462-1.462,1.462h-0.432c-0.807,0-1.463-0.656-1.463-1.462V4.326h-8.586v1.987c0,0.806-0.656,1.462-1.462,1.462  H8.625c-0.807,0-1.464-0.656-1.464-1.462V4.326H3.38c-0.572,0-1.036,0.465-1.036,1.036v20.534c0,0.571,0.463,1.035,1.036,1.035H17.4  c-0.235-0.49-0.419-1.008-0.535-1.553H3.898z"/><path d="M23.553,19.699c-0.39,0-0.708,0.317-0.708,0.707v3.224l-2.062,2.061c-0.134,0.133-0.207,0.312-0.207,0.501  c0,0.188,0.073,0.367,0.207,0.501c0.134,0.133,0.312,0.206,0.501,0.206c0.188,0,0.366-0.073,0.5-0.207l2.269-2.269  c0.009-0.01,0.012-0.022,0.021-0.032c0.053-0.059,0.1-0.123,0.131-0.197c0.034-0.082,0.05-0.169,0.052-0.256  c0-0.005,0.003-0.01,0.003-0.015v-3.517C24.261,20.017,23.943,19.699,23.553,19.699z"/><text x="0" y="47" fill="#000000" font-size="5px" font-weight="bold" font-family="'Helvetica Neue', Helvetica, Arial-Unicode, Arial, Sans-serif">Created by Milinda Courey</text><text x="0" y="52" fill="#000000" font-size="5px" font-weight="bold" font-family="'Helvetica Neue', Helvetica, Arial-Unicode, Arial, Sans-serif">from the Noun Project</text></svg>